<svg xmlns="http://www.w3.org/2000/svg" style="isolation:isolate" viewBox="0 0 100 100" width="100pt" height="100pt"><defs><clipPath id="a"><path d="M0 0h100v100H0z"/></clipPath></defs><g clip-path="url(#a)"><clipPath id="b"><path fill="#FFF" d="M0 0h533v533H0z"/></clipPath><g clip-path="url(#b)"><path d="M43.152 0h13.696C80.664 0 100 19.336 100 43.152v13.696C100 80.664 80.664 100 56.848 100H43.152C19.336 100 0 80.664 0 56.848V43.152C0 19.336 19.336 0 43.152 0z" fill="#FFF"/><g fill="#1D1D1B"><path d="M45.317 46.91v-.054a4.458 4.458 0 00-2.737-2.115h-.109a8.98 8.98 0 00-1.943-.365 12.15 12.15 0 01-4.999-1.85.581.581 0 00-.652.963c.498.322 1.018.61 1.554.863 0 .078-.07.156-.093.241a4.735 4.735 0 003.226 5.839c.45.128.916.194 1.384.194a4.59 4.59 0 003.646-1.773 8.05 8.05 0 01-.14 2.333.581.581 0 00.365.777c.062.01.125.01.187 0 .25 0 .472-.16.552-.397a8.994 8.994 0 00.178-3.187 3.836 3.836 0 00-.419-1.469zm-3.475-1.158c.027.133.027.271 0 .404a1.022 1.022 0 01-1.967-.552.925.925 0 01.07-.132l.466.054c.488.036.972.114 1.446.233l-.015-.007zm.731 3.304a3.638 3.638 0 01-2.706.248 3.568 3.568 0 01-2.441-4.408v-.093c.432.168.874.31 1.322.428v.046a2.175 2.175 0 002.809 2.708 2.178 2.178 0 001.428-1.798c.466.236.862.59 1.15 1.026a3.323 3.323 0 01-1.547 1.843h-.015zm21.066-4.478c0-.086-.062-.156-.093-.241a13.549 13.549 0 001.555-.863.584.584 0 00-.653-.964 12.15 12.15 0 01-4.999 1.85 9.015 9.015 0 00-1.959.366h-.093a4.457 4.457 0 00-2.752 2.13v.038a3.826 3.826 0 00-.419 1.516 9 9 0 00.178 3.188c.08.236.302.396.552.396a.583.583 0 00.56-.777 8.015 8.015 0 01-.148-2.333 4.588 4.588 0 003.646 1.773c.468 0 .934-.065 1.384-.195a4.731 4.731 0 003.241-5.884zm-4.12.948l.467-.054c.026.042.05.086.07.132a1.011 1.011 0 01-.692 1.244.99.99 0 01-1.267-1.096 8.43 8.43 0 011.43-.226h-.008zm.568 3.778c-.9.27-1.87.181-2.705-.248a3.32 3.32 0 01-1.555-1.851 3.002 3.002 0 011.15-1.018c.012.097.03.193.055.288a2.174 2.174 0 002.091 1.554 2.178 2.178 0 002.06-2.728v-.047c.448-.117.889-.26 1.322-.427v.093a3.569 3.569 0 01-2.418 4.384z"/><path d="M47.128 45.993c-.124-1.749-1.555-2.861-4.004-3.048a9.006 9.006 0 01-3.638-1.313.583.583 0 00-.645.971 10.057 10.057 0 004.198 1.501c1.049.077 2.822.443 2.931 1.966.02.307.275.545.583.544h.039a.582.582 0 00.536-.621zm10.09-1.889a10.057 10.057 0 004.198-1.501.581.581 0 00.163-.808.581.581 0 00-.808-.163 9.027 9.027 0 01-3.646 1.337c-2.417.186-3.887 1.298-4.003 3.047a.581.581 0 00.544.622h.039a.585.585 0 00.583-.544c.108-1.571 1.912-1.905 2.93-1.99zM38.04 40.053a.584.584 0 10.902-.738l-2.48-3.047a.581.581 0 00-1.009.155.581.581 0 00.108.583l2.479 3.047zm2.612-1.686a.586.586 0 00.545.373.585.585 0 00.544-.778l-1.096-2.86a.584.584 0 00-1.089.419l1.096 2.846zm3.11.085a.583.583 0 00.583-.536l.194-2.472a.582.582 0 00-.536-.63.574.574 0 00-.63.536l-.194 2.48a.585.585 0 00.583.622z"/><path d="M85.204 58.516c-3.032-.964-10.168-.878-15.967-.614 3.886-4.905 3.886-9.647 3.195-11.878-.529-1.672-1.345-5.885-.303-7.525.193-.334.533-.557.917-.599 1.368-.179 1.617-1.601 1.811-2.736.053-.407.144-.808.272-1.197.235-.42.559-.784.948-1.065a8.236 8.236 0 002.473-3.289c1.236-3.039-.42-4.54-.49-4.602a.572.572 0 00-.218-.101h-.109a4.785 4.785 0 00-3.739.568c-.529.256-1.181.567-2.145.971a5.347 5.347 0 01-6.219-1.026c-3.499-3.358-5.963-4.33-15.61-4.33-9.647 0-12.081.98-15.548 4.33a5.348 5.348 0 01-6.219 1.026 40.096 40.096 0 01-2.145-.971 4.787 4.787 0 00-3.74-.568h-.108a.572.572 0 00-.218.101c-.07.062-1.726 1.555-.49 4.602a8.243 8.243 0 002.472 3.289c.39.281.714.645.949 1.065.083.404.127.815.132 1.228.194 1.143.435 2.557 1.811 2.736.384.042.724.265.917.599 1.042 1.64.226 5.853-.303 7.525-.707 2.231-.676 6.996 3.195 11.878-5.799-.264-12.935-.35-15.967.614a.584.584 0 00.358 1.112c3.179-1.011 11.66-.777 16.464-.513h.195l.505.536c-5.97.086-10.02.498-12.049 1.229a.582.582 0 10.396 1.096c2.006-.723 6.452-1.128 12.874-1.174.272.233.552.458.831.684-5.029.28-13.215.94-16.325 2.332a.583.583 0 00.467 1.065c3.242-1.423 12.578-2.052 17.273-2.293l.778.559.077.055c-4.889.474-8.232 1.088-9.942 1.834a.585.585 0 00.466 1.066c1.609-.708 5.014-1.314 9.888-1.773a15.507 15.507 0 00.529 4.26c1.267 3.358 3.001 4.182 5.022 4.353.29.547.693 1.027 1.181 1.408a11.802 11.802 0 00-2.635 3.474.583.583 0 001.088.42c.21-.544.84-1.555 2.558-3.257a8.423 8.423 0 001.555.606 8.793 8.793 0 00-.715 2.667.586.586 0 00.551.614.584.584 0 00.584-.552 8.025 8.025 0 01.707-2.464c1.683.28 3.401.28 5.084 0 .364.779.603 1.61.707 2.464.017.31.273.552.584.552a.586.586 0 00.551-.614 8.776 8.776 0 00-.691-2.674 8.489 8.489 0 001.554-.607c1.718 1.703 2.332 2.713 2.558 3.257a.583.583 0 101.088-.419 11.79 11.79 0 00-2.635-3.475 4.412 4.412 0 001.181-1.407c2.022-.171 3.755-.988 5.015-4.346.363-1.382.533-2.808.505-4.237 4.874.459 8.287 1.065 9.888 1.773a.582.582 0 10.467-1.065c-1.726-.778-5.131-1.376-10.106-1.85l.622-.436.241-.171c4.664.233 14.148.863 17.428 2.332a.583.583 0 00.467-1.065c-3.156-1.383-11.358-2.036-16.38-2.332q.444-.334.863-.684c6.437.039 10.884.443 12.897 1.174a.583.583 0 00.396-1.096c-2.021-.731-6.071-1.143-12.049-1.228l.505-.537h.195c4.781-.241 13.285-.497 16.465.513a.625.625 0 10.365-1.197zm-32.65 14.7a.584.584 0 00-1.01.583c.124.21.303.545.497.933a14.076 14.076 0 01-4.058 0c.272-.552.49-.925.498-.933a.581.581 0 00-.506-.874.584.584 0 00-.505.291c0 .047-.326.568-.676 1.291a5.437 5.437 0 01-2.783-1.555H45.9a4.664 4.664 0 004.081-2.441 4.665 4.665 0 004.112 2.433h1.889a5.437 5.437 0 01-2.783 1.555c-.349-.7-.645-1.213-.676-1.267l.031-.016zm13.293-13.417l-.062.046a27.221 27.221 0 01-2.083 1.555h-.607c.101-1.329.35-2.526.832-2.884a.592.592 0 10-.731-.933c-.777.646-1.119 2.053-1.267 3.755h-.474a.565.565 0 00-.599.568.584.584 0 00.568.598h.435v.575h-.14a.591.591 0 00-.629.529.583.583 0 00.528.63h.164a15.533 15.533 0 01-.436 3.925c-1.096 2.916-2.41 3.53-4.314 3.623h-2.939a3.529 3.529 0 01-3.521-3.467c.271-.256.574-.476.902-.653.777-.498 1.92-1.182 1.5-2.169-.148-.342-.047-.505 1.29-1.415l.49-.334a1.93 1.93 0 001.011-1.555 1.62 1.62 0 00-.739-1.244.575.575 0 00-.777.171.59.59 0 00.163.778c.062.046.202.179.21.287.008.109-.132.319-.513.583l-.482.335c-1.267.855-2.262 1.554-1.71 2.775-.063.194-.692.575-1.034.777-.306.18-.6.38-.879.599a7.948 7.948 0 00-.878-.599 5.744 5.744 0 01-1.034-.723c.552-1.298-.451-1.974-1.71-2.837l-.482-.334c-.373-.265-.513-.475-.513-.583 0-.109.14-.241.202-.288a.583.583 0 00-.63-.979 1.615 1.615 0 00-.738 1.243c.049.657.43 1.244 1.01 1.555l.49.334c1.345.91 1.438 1.073 1.29 1.415-.419.995.692 1.671 1.501 2.169.313.179.614.379.902.599a3.53 3.53 0 01-3.53 3.513h-1.213c-2.891.07-4.664.109-6.048-3.622a15.632 15.632 0 01-.435-3.926h.163a.585.585 0 10-.101-1.166h-.109v-.575h.436a.583.583 0 100-1.166h-.474c-.148-1.703-.451-3.11-1.268-3.755a.636.636 0 00-.8.987c.482.381.707 1.555.824 2.884h-.739a31.457 31.457 0 01-1.928-1.555.542.542 0 00-.116-.108c-.202-.179-.405-.358-.591-.537l1.811.117h.047a.583.583 0 10.046-1.166s-1.22-.093-3.109-.195c-4.229-4.812-4.338-9.484-3.669-11.598 0-.062 1.811-5.924.179-8.497a2.386 2.386 0 00-1.711-1.111c-.482-.063-.637-.778-.777-1.781a7.39 7.39 0 00-.342-1.43 4.187 4.187 0 00-1.267-1.516 6.983 6.983 0 01-2.161-2.853c-.778-1.835-.179-2.845.078-3.172a2.483 2.483 0 011.609.42c.054.047 5.846 4.291 8.388 4.291h.272c-2.332 1.672-3.701 3.81-3.701 5.901a.583.583 0 101.166 0c0-2.185 2.021-4.579 5.154-6.111a10.63 10.63 0 003.483-1.158.583.583 0 10-.567-1.018 12.036 12.036 0 01-5.877 1.228c-.972 0-2.83-.94-4.556-1.982a6.453 6.453 0 007.23-1.345c3.109-2.97 5.045-4.004 14.77-4.004s11.661 1.042 14.77 4.004a6.365 6.365 0 004.486 1.905 7.606 7.606 0 002.674-.529c-1.718 1.034-3.576 1.967-4.54 1.967a12.037 12.037 0 01-5.877-1.229.583.583 0 00-.568 1.019 10.7 10.7 0 003.506 1.174c3.11 1.554 5.154 3.886 5.154 6.11a.583.583 0 101.167 0c0-2.099-1.376-4.237-3.701-5.9h.342c2.542 0 8.334-4.245 8.388-4.292a2.484 2.484 0 011.601-.42c.257.335.817 1.345.078 3.172a6.992 6.992 0 01-2.161 2.853 4.187 4.187 0 00-1.267 1.516 7.4 7.4 0 00-.342 1.431c-.179 1.033-.326 1.718-.777 1.78a2.382 2.382 0 00-1.749 1.127c-1.641 2.573.155 8.442.178 8.497.677 2.122.56 6.794-3.669 11.598a173.41 173.41 0 00-3.109.194.584.584 0 00.046 1.167h.047l1.811-.117c-.163.179-.404.365-.622.552z"/><path d="M61.463 40.271a.583.583 0 00.451-.218l2.48-3.047a.583.583 0 10-.902-.738l-2.48 3.047a.584.584 0 00.451.948v.008zm-2.877-1.57a.57.57 0 00.21 0 .583.583 0 00.545-.373l1.096-2.861a.582.582 0 00-1.089-.42l-1.096 2.861a.583.583 0 00.334.793zM56.2 38.46a.584.584 0 00.536-.63l-.194-2.48a.585.585 0 10-1.166.094l.194 2.479a.583.583 0 00.63.537z"/><circle vector-effect="non-scaling-stroke" cx="40.753" cy="65.388" r=".816"/><circle vector-effect="non-scaling-stroke" cx="41.026" cy="68.163" r=".816"/><circle vector-effect="non-scaling-stroke" cx="43.156" cy="69.99" r=".816"/><circle vector-effect="non-scaling-stroke" cx="43.871" cy="67.153" r=".816"/><circle vector-effect="non-scaling-stroke" cx="46.141" cy="68.583" r=".816"/><circle vector-effect="non-scaling-stroke" cx="59.208" cy="65.388" r=".816"/><circle vector-effect="non-scaling-stroke" cx="58.936" cy="68.163" r=".816"/><circle vector-effect="non-scaling-stroke" cx="56.806" cy="69.99" r=".816"/><circle vector-effect="non-scaling-stroke" cx="56.091" cy="67.153" r=".816"/><circle vector-effect="non-scaling-stroke" cx="53.821" cy="68.583" r=".816"/><path d="M52.748 51.908a.582.582 0 00-.629.537 7.166 7.166 0 01-2.138 4.19 7.115 7.115 0 01-2.122-4.198.585.585 0 00-1.166.093 8.546 8.546 0 002.899 5.333.58.58 0 00.366.132.58.58 0 00.365-.132 8.552 8.552 0 002.9-5.333.583.583 0 00-.475-.622zm-10.253 2.099a.585.585 0 00-.778.21c-.155.272-.357.56-.567.863-1.042 1.508-2.612 3.794-.397 6.219a.583.583 0 00.856-.777c-1.47-1.594-.723-2.97.497-4.742.226-.334.443-.645.614-.941a.581.581 0 00-.225-.832zm15.796.21a.584.584 0 00-1.011.583c.172.296.389.607.615.941 1.22 1.772 1.966 3.148.497 4.742a.581.581 0 00.277 1.021.583.583 0 00.578-.244c2.216-2.402.645-4.664-.396-6.219a10.69 10.69 0 01-.56-.824zm-14.615 7.409a.584.584 0 00-1.111-.358 3.21 3.21 0 001.485 3.747.583.583 0 00.583-1.01 2.037 2.037 0 01-.957-2.379zm12.229 3.366a3.21 3.21 0 001.484-3.747.583.583 0 10-1.111.357 2.04 2.04 0 01-.956 2.356.583.583 0 10.583 1.01v.024zm-3.685-3.25a2.977 2.977 0 01-4.486 0 .594.594 0 10-.901.778 4.133 4.133 0 006.281 0 .596.596 0 10-.902-.778h.008zM34.83 50.369a.585.585 0 00-.905.514c.011.22.144.415.345.505 2.045 1.127 2.931 2.79 2.931 3.389a.583.583 0 101.166 0c0-1.205-1.322-3.187-3.537-4.408zm31.157.233a.583.583 0 00-.777-.233c-2.231 1.221-3.568 3.203-3.568 4.416a.583.583 0 101.166 0c0-.599.886-2.27 2.93-3.39a.584.584 0 00.249-.793z"/></g></g></g></svg>